HIERARCHY
ROOT Hips
{
 OFFSET 0.000000 0.000000 0.000000
 CHANNELS 6 Xposition Yposition Zposition Yrotation Xrotation Zrotation
 JOINT Chest
 {
  OFFSET 0.000000 13.173100 -0.061900
  CHANNELS 3 Yrotation Xrotation Zrotation
  JOINT Chest2
  {
   OFFSET 0.000000 8.040800 0.126200
   CHANNELS 3 Yrotation Xrotation Zrotation
   JOINT Chest3
   {
    OFFSET 0.000000 7.994400 0.000000
    CHANNELS 3 Yrotation Xrotation Zrotation
    JOINT Chest4
    {
     OFFSET 0.000000 7.986200 0.000000
     CHANNELS 3 Yrotation Xrotation Zrotation
     JOINT Neck
     {
      OFFSET 0.000000 12.259400 0.000000
      CHANNELS 3 Yrotation Xrotation Zrotation
      JOINT Head
      {
       OFFSET 0.000000 7.518700 0.267100
       CHANNELS 3 Yrotation Xrotation Zrotation
       End Site
       {
        OFFSET 0.000000 13.617700 0.141000
       }
      }
     }
     JOINT RightCollar
     {
      OFFSET -2.983800 8.314300 0.000000
      CHANNELS 3 Yrotation Xrotation Zrotation
      JOINT RightShoulder
      {
       OFFSET -16.133400 0.000000 0.000000
       CHANNELS 3 Yrotation Xrotation Zrotation
       JOINT RightElbow
       {
        OFFSET 0.000000 -29.822100 0.000000
        CHANNELS 3 Yrotation Xrotation Zrotation
        JOINT RightWrist
        {
         OFFSET 0.000000 -24.437700 0.010900
         CHANNELS 3 Yrotation Xrotation Zrotation
         End Site
         {
          OFFSET 0.000000 -18.312300 0.000000
         }
        }
       }
      }
     }
     JOINT LeftCollar
     {
      OFFSET 2.983800 8.314300 0.000000
      CHANNELS 3 Yrotation Xrotation Zrotation
      JOINT LeftShoulder
      {
       OFFSET 16.133400 0.000000 0.000000
       CHANNELS 3 Yrotation Xrotation Zrotation
       JOINT LeftElbow
       {
        OFFSET 0.000000 -29.822100 0.000000
        CHANNELS 3 Yrotation Xrotation Zrotation
        JOINT LeftWrist
        {
         OFFSET 0.000000 -24.437700 0.010900
         CHANNELS 3 Yrotation Xrotation Zrotation
         End Site
         {
          OFFSET 0.000000 -18.312300 0.000000
         }
        }
       }
      }
     }
    }
   }
  }
 }
 JOINT RightHip
 {
  OFFSET -11.206700 0.306200 0.030900
  CHANNELS 3 Yrotation Xrotation Zrotation
  JOINT RightKnee
  {
   OFFSET 0.000000 -57.334900 0.009400
   CHANNELS 3 Yrotation Xrotation Zrotation
   JOINT RightAnkle
   {
    OFFSET 0.000000 -43.376200 0.036600
    CHANNELS 3 Yrotation Xrotation Zrotation
    JOINT RightToe
    {
     OFFSET 0.000000 -10.035500 18.363100
     CHANNELS 3 Yrotation Xrotation Zrotation
     End Site
     {
      OFFSET 0.000000 -1.618500 7.239000
     }
    }
   }
  }
 }
 JOINT LeftHip
 {
  OFFSET 11.206700 0.306200 0.030900
  CHANNELS 3 Yrotation Xrotation Zrotation
  JOINT LeftKnee
  {
   OFFSET 0.000000 -57.334900 0.009400
   CHANNELS 3 Yrotation Xrotation Zrotation
   JOINT LeftAnkle
   {
    OFFSET 0.000000 -43.376200 0.036600
    CHANNELS 3 Yrotation Xrotation Zrotation
    JOINT LeftToe
    {
     OFFSET 0.000000 -10.035500 18.363100
     CHANNELS 3 Yrotation Xrotation Zrotation
     End Site
     {
      OFFSET 0.000000 -1.618500 7.239000
     }
    }
   }
  }
 }
}
MOTION
Frames: 15
Frame Time: 0.008333
0.000000 110.232800 0.000000 0.000000 -5.767877 0.000000 0.000000 11.653817 0.000000 0.000000 -5.885947 0.000000 0.000000 -0.000000 0.000000 0.000000 -0.000000 0.000000 0.000000 12.528835 0.000000 0.000000 0.711642 0.000000 0.000000 -0.000000 0.000000 0.000000 0.000000 -90.000000 0.000000 -2.309062 0.000000 0.000000 2.309062 0.000000 0.000000 -0.000000 0.000000 0.000000 -0.000000 90.000000 0.000000 -2.309062 0.000000 0.000000 2.309062 0.000000 0.000000 8.520406 0.000000 0.000000 1.905762 0.000000 -0.000000 -4.658285 0.000000 0.000000 -0.000000 0.000000 0.000000 8.520406 0.000000 0.000000 1.905762 0.000000 -0.000000 -4.658285 0.000000 0.000000 -0.000000 0.000000
-93.273024 64.298858 91.715058 174.018626 -36.635608 -2.780691 3.760312 23.178218 2.690328 0.483420 3.473576 0.488822 0.794624 5.594209 0.803064 3.212674 19.444206 3.239617 -0.386762 15.997693 0.942545 -1.056256 -6.074350 1.891237 -4.907409 0.166744 -3.910847 3.366729 -13.010393 0.899295 -170.040648 -65.368092 -174.322064 -1.185095 -9.872404 -0.156805 -7.084911 -1.247892 1.426933 -0.404676 -13.718563 4.721396 158.965837 -67.239990 -176.194680 -2.103001 -19.373771 10.859492 -2.422283 -44.699951 2.083525 -130.714741 85.469283 -126.101467 0.321441 -9.883776 -2.200676 0.355320 -0.760431 0.128698 -2.656006 -41.096994 4.022055 75.240002 83.439596 64.927346 -5.499875 -13.556321 8.837434 0.463965 1.184570 0.298230
-93.267617 64.304917 91.708811 174.033449 -36.592951 -2.805568 3.676917 23.004711 2.637882 0.467705 3.410915 0.478874 0.769535 5.499164 0.787072 3.145024 19.310637 3.201447 -0.360242 16.019703 0.926793 -1.000892 -6.034299 1.852147 -5.018879 0.350989 -3.855305 3.213859 -12.459797 1.100826 -170.095370 -65.962129 -174.250985 -1.167852 -9.714748 0.245265 -6.826808 -1.093158 1.412100 0.005826 -12.990606 4.808315 158.900801 -67.537577 -176.221318 -2.315869 -19.240983 10.694684 -2.448743 -44.724477 2.093974 -130.678860 85.474482 -126.052121 0.339548 -9.909885 -2.191853 0.346656 -0.747784 0.112396 -2.646571 -41.131813 4.065253 75.183109 83.473197 64.850270 -5.521766 -13.558756 8.878820 0.467157 1.175950 0.299943
-93.263002 64.306734 91.707768 174.055456 -36.506991 -2.830133 3.576079 22.783987 2.577240 0.450744 3.345386 0.469002 0.742428 5.399663 0.771271 3.070302 19.168956 3.163784 -0.330032 16.056620 0.915076 -0.939848 -5.966619 1.818994 -5.123706 0.537659 -3.801377 3.030056 -11.896460 1.310832 -170.117843 -66.555847 -174.206740 -1.177578 -9.546447 0.674446 -6.541935 -0.908036 1.395918 0.407752 -12.283597 4.887072 158.853335 -67.853514 -176.248306 -2.521698 -19.103020 10.484168 -2.486931 -44.803437 2.112436 -130.647218 85.471397 -126.014704 0.346399 -9.915705 -2.189189 0.340212 -0.760821 0.118309 -2.672755 -41.215535 4.095165 75.181292 83.483733 64.834698 -5.503992 -13.567448 8.890642 0.460085 1.168071 0.281156
-93.256316 64.309690 91.705123 174.088857 -36.419936 -2.865547 3.458899 22.555829 2.520251 0.432426 3.277725 0.459126 0.713050 5.296675 0.755444 2.987023 19.020703 3.125547 -0.292939 16.112547 0.907928 -0.867369 -5.863510 1.791659 -5.215791 0.724658 -3.749279 2.828848 -11.319244 1.534851 -170.178599 -67.144496 -174.135224 -1.187546 -9.386677 1.108518 -6.227259 -0.694867 1.377904 0.810840 -11.597964 4.951032 158.871531 -68.194652 -176.326838 -2.728638 -18.958935 10.240472 -2.539570 -44.881547 2.138732 -130.602169 85.462396 -125.961231 0.356401 -9.919937 -2.197045 0.337021 -0.776433 0.129978 -2.685382 -41.296781 4.139885 75.091853 83.520808 64.742288 -5.535334 -13.580657 8.900274 0.480540 1.175044 0.293986
-93.251536 64.317666 91.694820 174.135761 -36.365384 -2.893107 3.320300 22.351971 2.448504 0.412940 3.208920 0.449129 0.681708 5.191712 0.739306 2.895287 18.867961 3.085483 -0.249809 16.192272 0.906885 -0.785544 -5.716240 1.773317 -5.289378 0.915501 -3.696280 2.621259 -10.736434 1.781318 -170.348887 -67.730105 -173.981716 -1.173033 -9.252195 1.510504 -5.891356 -0.460714 1.362573 1.227582 -10.925386 4.995448 158.993379 -68.558887 -176.502108 -2.948049 -18.801610 9.982166 -2.584580 -44.923770 2.141047 -130.842328 85.464706 -126.192434 0.339097 -9.936650 -2.211124 0.345205 -0.795398 0.153050 -2.657031 -41.336451 4.187021 74.928769 83.585385 64.537433 -5.610554 -13.585519 8.970979 0.510649 1.171249 0.311675
-93.245081 64.322931 91.688059 174.161201 -36.290571 -2.913276 3.198997 22.113855 2.382632 0.393152 3.139325 0.439028 0.649866 5.085434 0.723016 2.799946 18.710922 3.044378 -0.205271 16.303217 0.914240 -0.703720 -5.511011 1.769877 -5.346530 1.116972 -3.635418 2.419184 -10.151184 2.058458 -170.683326 -68.313861 -173.705035 -1.126281 -9.146819 1.852707 -5.552624 -0.209418 1.354532 1.636278 -10.249973 5.022071 159.291935 -68.938905 -176.821469 -3.189255 -18.627609 9.729167 -2.618473 -44.992584 2.154275 -130.931583 85.463459 -126.279673 0.340301 -9.933425 -2.215856 0.346083 -0.811983 0.161265 -2.653187 -41.398145 4.227168 74.865872 83.613719 64.439844 -5.631646 -13.604495 9.005810 0.493146 1.177995 0.326872
-93.238274 64.328754 91.680086 174.182355 -36.222125 -2.930025 3.082861 21.869764 2.317882 0.373871 3.069062 0.429187 0.618809 4.977998 0.707169 2.705988 18.549146 3.004968 -0.161320 16.453250 0.928768 -0.587219 -5.207402 1.749945 -5.388709 1.328239 -3.564982 2.225209 -9.564014 2.369855 -171.202783 -68.904043 -173.289324 -1.057183 -9.068672 2.131395 -5.225426 0.054684 1.350644 2.022142 -9.565397 5.033067 159.840435 -69.333891 -177.335397 -3.455049 -18.441267 9.508067 -2.656894 -45.053914 2.176320 -130.991011 85.461046 -126.345426 0.335092 -9.934196 -2.220597 0.352871 -0.824631 0.172283 -2.661832 -41.457319 4.257726 74.892022 83.624060 64.433518 -5.634745 -13.615378 9.052676 0.464031 1.174274 0.311697
-93.231235 64.335726 91.669920 174.210983 -36.166388 -2.951401 2.964011 21.628951 2.256647 0.355303 2.998445 0.419885 0.588930 4.869795 0.692217 2.615128 18.382913 2.969173 -0.116418 16.648432 0.947822 -0.528017 -4.872824 1.780697 -5.417391 1.544936 -3.490064 2.032215 -8.978415 2.711332 -171.849039 -69.507959 -172.784312 -0.974929 -9.000175 2.350420 -4.921159 0.324455 1.342890 2.395117 -8.871201 5.034844 160.667934 -69.748325 -178.074908 -3.742397 -18.258748 9.345370 -2.704692 -45.096235 2.199679 -131.050868 85.457942 -126.412871 0.331381 -9.951758 -2.225400 0.355838 -0.825433 0.177173 -2.675253 -41.503740 4.287640 74.933265 83.634957 64.443340 -5.638172 -13.625285 9.098654 0.452650 1.160157 0.281976
-93.223292 64.342148 91.659836 174.235906 -36.112896 -2.976779 2.852096 21.381714 2.204665 0.337473 2.927381 0.411036 0.560272 4.760627 0.678093 2.527495 18.211696 2.936758 -0.069205 16.891113 0.969978 -0.461936 -4.420564 1.818714 -5.434426 1.766393 -3.416169 1.840811 -8.395499 3.072711 -172.483251 -70.129012 -172.320694 -0.879931 -8.906441 2.526224 -4.648098 0.591396 1.325076 2.759725 -8.159804 5.036145 161.774976 -70.185661 -179.048301 -4.047749 -18.099941 9.258864 -2.751316 -45.136821 2.224453 -131.139891 85.457034 -126.501635 0.331230 -9.965629 -2.232855 0.355328 -0.828303 0.178886 -2.671652 -41.544820 4.328094 74.914012 83.659748 64.402793 -5.667218 -13.643185 9.130379 0.445278 1.164209 0.293637
-93.213982 64.350221 91.646753 174.254763 -36.079007 -3.007258 2.749600 21.147404 2.162531 0.320432 2.855537 0.402346 0.532790 4.650019 0.664227 2.442977 18.034739 2.905862 -0.019020 17.177484 0.996218 -0.373928 -3.889238 1.847023 -5.440998 1.993924 -3.345295 1.663778 -7.818442 3.447534 -172.972344 -70.774945 -172.034367 -0.781420 -8.748747 2.689715 -4.408667 0.849316 1.299336 3.114736 -7.429600 5.036409 163.131749 -70.648892 179.767112 -4.370116 -17.962988 9.248786 -2.802752 -45.154897 2.262717 -131.162521 85.454414 -126.527631 0.340524 -9.981045 -2.236926 0.349544 -0.830098 0.179297 -2.628313 -41.560371 4.380274 74.787712 83.709899 64.274409 -5.749052 -13.667374 9.158395 0.501162 1.172142 0.322728
-93.211757 64.358710 91.630730 174.272288 -36.058596 -3.010391 2.640422 20.925258 2.090715 0.304276 2.783720 0.393674 0.506694 4.539300 0.650399 2.362065 17.854215 2.875434 0.033836 17.496113 1.028842 -0.282713 -3.298077 1.886276 -5.445744 2.224391 -3.279156 1.505556 -7.256887 3.835141 -173.222525 -71.451879 -172.015041 -0.705563 -8.487012 2.872357 -4.207433 1.090847 1.270822 3.465559 -6.688806 5.030188 164.663911 -71.136930 178.434781 -4.705865 -17.825364 9.293878 -2.820265 -45.165250 2.258791 -131.179800 85.428416 -126.552386 0.360535 -10.005266 -2.232729 0.349000 -0.831675 0.179760 -2.618278 -41.570324 4.388329 74.865772 83.715824 64.324653 -5.756962 -13.669269 9.189830 0.482611 1.151612 0.313598
-93.204220 64.358783 91.626581 174.289611 -35.981662 -3.047726 2.541726 20.647828 2.052582 0.289224 2.713799 0.385245 0.482339 4.431273 0.636929 2.285823 17.674743 2.846019 0.089100 17.834170 1.068695 -0.189181 -2.670691 1.938337 -5.458946 2.445404 -3.219886 1.356589 -6.720077 4.228519 -173.172227 -72.158903 -172.309515 -0.665868 -8.092525 3.105329 -4.041757 1.305318 1.238670 3.805904 -5.947409 5.014000 166.291647 -71.650783 177.025728 -5.041493 -17.665499 9.375829 -2.869203 -45.233938 2.305893 -131.114309 85.418445 -126.488872 0.372945 -10.015796 -2.222633 0.340119 -0.828418 0.174253 -2.644920 -41.640843 4.448785 74.965134 83.725578 64.393983 -5.754610 -13.694233 9.226189 0.466191 1.154989 0.288027
-93.199229 64.362215 91.616933 174.283222 -35.938017 -3.063905 2.460258 20.411446 2.007176 0.275518 2.647358 0.377302 0.460068 4.328298 0.624174 2.215631 17.500628 2.818490 0.148712 18.184409 1.117506 -0.090480 -2.020608 2.005590 -5.485489 2.641916 -3.164903 1.212578 -6.208235 4.614945 -172.853858 -72.881531 -172.884220 -0.646802 -7.567253 3.415152 -3.899008 1.488417 1.204350 4.117189 -5.220120 4.985177 167.909365 -72.194756 175.644742 -5.358788 -17.462274 9.478343 -2.885387 -45.272588 2.338301 -131.120432 85.412182 -126.498807 0.381531 -10.020434 -2.214489 0.329735 -0.829751 0.174745 -2.626364 -41.672863 4.499388 74.993561 83.750142 64.398583 -5.781158 -13.711122 9.265619 0.469595 1.154104 0.287053
-93.192184 64.365358 91.608377 174.269710 -35.896646 -3.091231 2.388476 20.187320 1.973652 0.263020 2.585213 0.369884 0.439729 4.231811 0.612320 2.150560 17.334803 2.792911 0.218478 18.546239 1.177566 0.023405 -1.349117 2.090400 -5.527646 2.809631 -3.112298 1.072535 -5.719216 4.987106 -172.377494 -73.596896 -173.630974 -0.626248 -6.950555 3.806217 -3.767828 1.646129 1.173133 4.400464 -4.526172 4.945651 169.306311 -72.770110 174.485475 -5.651252 -17.180464 9.576485 -2.907912 -45.308213 2.390127 -131.099511 85.411905 -126.476888 0.388380 -10.018862 -2.209468 0.323394 -0.833337 0.172791 -2.614965 -41.704108 4.569889 75.046585 83.778265 64.427869 -5.793376 -13.729506 9.299941 0.453820 1.151047 0.294722
